<svg version="1.1" viewBox="0 0 96 96" xmlns="http://www.w3.org/2000/svg" xmlns:xlink="http://www.w3.org/1999/xlink" id="Icons_Diploma" overflow="hidden"><style>
.MsftOfcThm_Background1_Fill {
 fill:#FFFFFF; 
}
</style>
<rect x="20" y="52" width="28" height="4" stroke="none" stroke-width="1" stroke-dasharray="" stroke-dashoffset="1" fill="#FFFFFF" fill-opacity="1"/><rect x="20" y="60" width="28" height="4" stroke="none" stroke-width="1" stroke-dasharray="" stroke-dashoffset="1" fill="#FFFFFF" fill-opacity="1"/><path d=" M 24.4 42.3 C 24.5 42.3 35.1 38.5 48 38.5 C 60.9 38.5 71.5 42.3 71.6 42.3 C 72 42.4 72.3 42.5 72.7 42.5 C 74.1 42.5 75.4 41.6 75.8 40.1 C 76.4 38.3 75.5 36.3 73.7 35.7 C 73.3 35.5 62 31.5 48 31.5 C 34 31.5 22.7 35.5 22.2 35.7 C 20.5 36.3 19.5 38.3 20.1 40.1 C 20.8 42 22.7 42.9 24.4 42.3" stroke="none" stroke-width="1" stroke-dasharray="" stroke-dashoffset="1" fill="#FFFFFF" fill-opacity="1"/><path d=" M 8 76 L 88 76 L 88 20 L 8 20 L 8 76 Z M 82 70 L 14 70 L 14 26 L 82 26 L 82 70 Z" stroke="none" stroke-width="1" stroke-dasharray="" stroke-dashoffset="1" fill="#FFFFFF" fill-opacity="1"/><path d=" M 73.5 55.3 L 73.9 52.6 L 71.3 53.1 L 70.3 50.5 L 68.3 52.3 L 66.2 50.5 L 65.3 53.1 L 62.6 52.6 L 63.1 55.3 L 60.5 56.2 L 62.3 58.3 L 60.5 60.3 L 63.1 61.3 L 62.6 63.9 L 65.3 63.5 L 66.2 66 L 68.3 64.3 L 70.3 66 L 71.3 63.5 L 73.9 63.9 L 73.5 61.3 L 76 60.3 L 74.3 58.3 L 76 56.2 Z" stroke="none" stroke-width="1" stroke-dasharray="" stroke-dashoffset="1" fill="#FFFFFF" fill-opacity="1"/></svg>