<svg version="1.1" viewBox="0 0 96 96" xmlns="http://www.w3.org/2000/svg" xmlns:xlink="http://www.w3.org/1999/xlink" id="Icons_Computer" overflow="hidden"><style>
.MsftOfcThm_Background1_Fill {
 fill:#FFFFFF; 
}
</style>
<path d=" M 56 58 L 8 58 L 8 26 L 56 26 L 56 58 Z M 58 20 L 6 20 C 3.8 20 2 21.8 2 24 L 2 60 C 2 62.2 3.8 64 6 64 L 26 64 L 26 70 L 17 70 L 17 76 L 47 76 L 47 70 L 38 70 L 38 64 L 58 64 C 60.2 64 62 62.2 62 60 L 62 24 C 62 21.8 60.2 20 58 20 Z" stroke="none" stroke-width="1" stroke-dasharray="" stroke-dashoffset="1" fill="#FFFFFF" fill-opacity="1"/><path d=" M 90 30 L 70 30 L 70 24 L 90 24 L 90 30 Z M 90 40 L 70 40 L 70 34 L 90 34 L 90 40 Z M 80 70 C 78.3 70 77 68.7 77 67 C 77 65.3 78.3 64 80 64 C 81.7 64 83 65.3 83 67 C 83 68.7 81.7 70 80 70 Z M 90 20 L 70 20 C 67.8 20 66 21.8 66 24 L 66 72 C 66 74.2 67.8 76 70 76 L 90 76 C 92.2 76 94 74.2 94 72 L 94 24 C 94 21.8 92.2 20 90 20 Z" stroke="none" stroke-width="1" stroke-dasharray="" stroke-dashoffset="1" fill="#FFFFFF" fill-opacity="1"/></svg>